:FULLY-SPECIFIED
:DEGREES
2488
root 1.16246 15.6973 -2.09571 4905.94 -84.1508 -4902.21
lowerback 5.12993 0.974135 -8.78551
upperback -1.58417 0.682166 0.0629381
thorax -4.65977 0.586356 4.94098
lowerneck -16.3426 0.923755 1.40591
upperneck 19.6672 1.45891 -3.05912
head 8.89052 0.398398 -1.10349
rclavicle 9.93923e-015 3.28989e-014
rhumerus -31.5807 -15.2498 -82.0299
rradius 16.3637
rwrist 15.1207
rhand -29.3111 -17.4657
rfingers 7.12502
rthumb -2.6522 -47.429
lclavicle 9.93923e-015 3.28989e-014
lhumerus -19.2322 -10.182 90.9878
lradius 31.5993
lwrist 11.0519
lhand -33.5117 15.3596
lfingers 7.12502
lthumb -6.70824 45.2333
rfemur -33.0921 1.54499 17.1454
rtibia 42.9223
rfoot -14.2997 -21.557
rtoes -12.8674
lfemur -5.99231 -3.88036 -30.9443
ltibia 19.3048
lfoot -13.556 8.77067
ltoes -6.89142
2489
root 1.17782 15.7029 -2.09555 4906.8 -84.084 -4902.81
lowerback 4.92606 0.983932 -8.88902
upperback -1.64355 0.702958 0.0187985
thorax -4.61131 0.59828 4.95189
lowerneck -16.4025 0.89236 1.42492
upperneck 19.6343 1.40838 -3.04569
head 8.88886 0.378301 -1.10796
rclavicle -1.59028e-014 -3.37934e-015
rhumerus -30.7604 -14.7614 -82.7765
rradius 16.7673
rwrist 14.4185
rhand -29.3847 -17.2903
rfingers 7.12502
rthumb -2.72327 -47.2527
lclavicle -1.59028e-014 -3.37934e-015
lhumerus -19.6643 -10.4903 91.0631
lradius 31.7902
lwrist 11.1276
lhand -33.4188 15.4747
lfingers 7.12502
lthumb -6.61855 45.3513
rfemur -33.2117 2.16323 16.9988
rtibia 40.3535
rfoot -14.2215 -21.3087
rtoes -13.3232
lfemur -5.13026 -3.78576 -31.0871
ltibia 18.2595
lfoot -13.5068 8.6917
ltoes -7.01763
2490
root 1.19107 15.7072 -2.09444 4907.55 -83.9735 -4903.33
lowerback 4.73191 0.995259 -8.98062
upperback -1.70628 0.724947 -0.0395478
thorax -4.57172 0.610582 4.94099
lowerneck -16.4106 0.865905 1.43884
upperneck 19.5729 1.36886 -3.0475
head 8.86834 0.361803 -1.11525
rclavicle -7.95139e-015 2.00773e-014
rhumerus -29.9646 -13.9572 -83.6433
rradius 17.383
rwrist 13.3761
rhand -29.3237 -17.3883
rfingers 7.12502
rthumb -2.66431 -47.3514
lclavicle -7.95139e-015 2.00773e-014
lhumerus -20.1195 -10.715 91.1405
lradius 31.8508
lwrist 11.24
lhand -33.4176 15.3225
lfingers 7.12502
lthumb -6.61735 45.1991
rfemur -33.2678 2.93566 16.7191
rtibia 37.8063
rfoot -14.3388 -20.9468
rtoes -13.4502
lfemur -4.17841 -3.73042 -31.2796
ltibia 17.1083
lfoot -13.4489 8.72009
ltoes -7.25543
2491
root 1.20435 15.7125 -2.09341 4908.77 -83.8351 -4904.32
lowerback 4.54958 0.987394 -9.15937
upperback -1.77988 0.714816 -0.0820423
thorax -4.54759 0.610702 4.99866
lowerneck -16.3978 0.853064 1.44401
upperneck 19.5103 1.35794 -3.08478
head 8.84465 0.354072 -1.12965
rclavicle 9.14409e-015 -3.12589e-014
rhumerus -29.2232 -12.5662 -84.6468
rradius 18.1143
rwrist 11.6779
rhand -29.3684 -17.3716
rfingers 7.12502
rthumb -2.70747 -47.3342
lclavicle 9.14409e-015 -3.12589e-014
lhumerus -20.6262 -10.7956 91.2357
lradius 31.8648
lwrist 10.9925
lhand -33.2516 15.4678
lfingers 7.12502
lthumb -6.45708 45.3494
rfemur -33.3293 3.73048 16.3155
rtibia 35.3238
rfoot -14.4645 -20.6786
rtoes -13.935
lfemur -3.14976 -3.66193 -31.5269
ltibia 15.8159
lfoot -13.2598 8.75471
ltoes -7.83043
2492
root 1.21987 15.7172 -2.09344 4909.8 -83.7654 -4905.09
lowerback 4.36196 0.983133 -9.25383
upperback -1.84098 0.717907 -0.106309
thorax -4.5077 0.614371 5.02705
lowerneck -16.4514 0.834971 1.43146
upperneck 19.4607 1.34637 -3.12846
head 8.83738 0.343682 -1.14341
rclavicle -1.19271e-014 2.87244e-014
rhumerus -28.459 -11.8106 -85.3756
rradius 18.8366
rwrist 10.3655
rhand -29.4986 -17.3966
rfingers 7.12502
rthumb -2.83324 -47.3575
lclavicle -1.19271e-014 2.87244e-014
lhumerus -21.136 -10.9945 91.3696
lradius 31.8497
lwrist 10.7558
lhand -33.032 15.6624
lfingers 7.12502
lthumb -6.24507 45.5504
rfemur -33.4269 4.67168 15.9057
rtibia 32.9361
rfoot -14.4309 -20.5406
rtoes -14.469
lfemur -2.11372 -3.50299 -31.686
ltibia 14.4323
lfoot -13.0037 8.55986
ltoes -8.26618
